# xmcd
#
# Track frame offsets:
#       150
#       16910
#       33967
#       52358
#       66782
#       75012
#       94121
#       113209
#       127412
#       130921
#       145668
#       163077
#       181681
#       199277
#       222157
#
# Disc length: 3205 seconds
#
# Revision: 0
# Processed by: cddbd v1.5.2PL0 Copyright (c) Steve Scherf et al.
# Submitted via: WaveLab 4.01
#
DISCID=d20c830f
DTITLE=Akord - I.O.N.
DYEAR=1900
DGENRE=
TTITLE0=Intro
TTITLE1=Hey Typ feat. Spineheatt and Mr.Rakoon
TTITLE2=Rapmusik
TTITLE3=Der Der Der
TTITLE4=Süd Park Skit 
TTITLE5=Richtig Oder Falsch feat. Klabauter
TTITLE6=Teufelspakt feat. Styles Delivery
TTITLE7=Liebe Macht Blind
TTITLE8=Ueber Mutti Skit
TTITLE9=Ihr Seid Nicht Wie Wir Pt.1
TTITLE10=Liebe Ist
TTITLE11=Ihr Seid Nicht Wie Wir Pt.2
TTITLE12=Kampfarena
TTITLE13=Helden
TTITLE14=Round Two
EXTD=
EXTT0=
EXTT1=
EXTT2=
EXTT3=
EXTT4=
EXTT5=
EXTT6=
EXTT7=
EXTT8=
EXTT9=
EXTT10=
EXTT11=
EXTT12=
EXTT13=
EXTT14=
PLAYORDER=
